<?xml version="1.0" encoding="UTF-8"?>
<svg id="icon" xmlns="http://www.w3.org/2000/svg" viewBox="0 0 193.27 187.93">
  <defs>
    <style>
      .cls-1 {
        fill: none;
        stroke: #000;
        stroke-linecap: round;
        stroke-linejoin: round;
        stroke-width: 5px;
      }
    </style>
  </defs>
  <path class="cls-1" d="M120.84,117c-11.57-8.04-11.53-9.92-18.02-13.7-5.88-3.42-11.52-6.7-18.75-6.01-10.58,1.01-17.09,9.82-18.75,12.26-7.79,11.51-4.28,24.42-3.6,26.92,3.41,12.54,12.8,19.12,17.06,22.11,15.7,11.01,33.12,9.18,39.17,8.17,9.81-1.63,16.07-5.45,25.23-11.06,0,0,18.11-11.07,19.95-21.63.3-1.74,0-3.36,0-3.36-.49-2.66-2.23-5.27-4.33-6.49-3.38-1.96-5.81.77-12.97,1.26-6.33.43-11.25-1.23-13.47-1.98-2.8-.95-5.41-2.23-11.54-6.49Z"/>
  <path class="cls-1" d="M179.72,97.53c-.66-.87-3.05-3.84-6.97-4.57-1.69-.31-3.38-.15-8.41,1.68-4.64,1.7-7.89,3.27-9.61,4.09-7.64,3.6-11.46,5.42-15.38,5.77-2.36.21-11.36,1.01-15.14-4.81-2.74-4.22-.88-10.3-.72-10.81.52-1.69,1.34-3.14,1.8-3.97,1.53-2.72,2.91-4.01,4.21-5.65,0,0,2.24-2.84,4.21-8.05.77-2.04,2.05-6.49-.84-19.83-1.88-8.68-2.81-13.02-5.05-17.3-6.49-12.44-17.58-18.16-22.11-20.43-4.23-2.11-13.5-6.6-25.96-5.77-14.38.96-24.1,8.42-28.36,11.78-2.85,2.25-7.43,5.92-11.3,12.02,1.21.91.62,3.01.48,5.77-.25,4.88.83,13.24,5.53,16.58,1.39.99,2.44,1.07,3.12,2.4,1.11,2.15.04,5.15-1.44,6.97-1.8,2.2-4.27,2.74-6.01,3.12-3.14.69-5.87.17-7.68-.37.08,2.97.58,6.84,2.39,10.95,1.71,3.89,3,4.68,3.36,7.45.52,3.97-2.26,6.33-5.77,12.02-.25.41-4.04,6.62-6.25,12.98-3.1,8.94-2.54,16.65-2.16,21.15.41,4.91,2.2,18.85,11.54,30.76,11.42,14.57,27.76,17.96,45.42,21.63,22.06,4.58,38.71,1.52,54.79-1.44,6.95-1.28,13.39-2.95,20.19-7.21,2.85-1.79,10.27-6.5,15.62-15.62,2.75-4.68,3.86-8.68,5.17-13.34,1.64-5.85,2.09-10.26,2.99-19.09.07-.68.27-7.52.73-16.6.21-4.07.45-8.5-2.4-12.26Z"/>
  <path class="cls-1" d="M40.09,31.68c-1.06-.8-2.16.34-4.57.24-4.02-.16-4.97-3.47-8.65-3.6-1.71-.06-4.01.56-5.29,2.16-2.96,3.71-.03,12.11,4.57,14.9.65.4,2.04,1.1,1.92,1.44-.14.42-2.32-.46-4.81,0-1.95.36-4.95,1.71-5.77,4.33-1.02,3.27,1.99,6.51,2.64,7.21,1.25,1.35,1.83,1.26,7.21,4.33,4.07,2.32,3.74,2.37,5.05,2.88.39.15.98.37,1.7.59"/>
  <path class="cls-1" d="M57.51,37.2c.19,1,.16,2.33-.13,3.73-.58,2.82-2.01,4.9-3.18,4.66s-1.64-2.72-1.06-5.54,2.01-4.9,3.18-4.66c.58.12,1,.8,1.19,1.8"/>
</svg>