<?xml version="1.0" encoding="UTF-8"?>
<svg id="Facing_Forward" data-name="Facing Forward" xmlns="http://www.w3.org/2000/svg" viewBox="0 0 193.27 185.68">
  <defs>
    <style>
      .cls-1 {
        fill: #f9d43b;
      }

      .cls-1, .cls-2, .cls-3, .cls-4, .cls-5, .cls-6 {
        stroke-width: 0px;
      }

      .cls-2 {
        fill: #f4c217;
      }

      .cls-3 {
        fill: #f47920;
      }

      .cls-4 {
        fill: #f8981d;
      }

      .cls-5 {
        fill: #304a60;
      }

      .cls-6 {
        fill: #ecf0f1;
      }
    </style>
  </defs>
  <path class="cls-4" d="M23.68,128.68c-2.55-1.56-7.98-5.38-11.51-12.46-.39-.79-6.45-13.46-.67-25.59,4.48-9.39,14.11-14.33,18.69-16.69,1.17-.6,5.64-2.8,11.35-6.45,1.38-.88,2.49-1.63,3.2-2.12l6.75,12.71-27.81,50.6Z"/>
  <path class="cls-4" d="M169.88,128.66c1.61-.83,13.1-6.96,15.42-19.7,2.09-11.46-4.69-20.32-7.34-23.78-5.17-6.76-11.82-10.3-19.27-14.27-4.54-2.42-8.51-4.02-11.27-5.04l-6.19,11.68,28.66,51.11Z"/>
  <path class="cls-2" d="M141.23,77.55c17.51,10.86,28.81,27.97,28.81,47.23,0,32.81-32.8,59.41-73.26,59.41s-73.26-26.6-73.26-59.41c0-18.95,10.94-35.82,27.97-46.7"/>
  <ellipse class="cls-1" cx="96.17" cy="50.39" rx="53.96" ry="49.36"/>
  <ellipse class="cls-5" cx="65.76" cy="45.11" rx="12.56" ry="9.35" transform="translate(4.02 95.58) rotate(-73.72)"/>
  <ellipse class="cls-5" cx="128.47" cy="45.11" rx="9.35" ry="12.56" transform="translate(-7.17 33.18) rotate(-14.32)"/>
  <circle class="cls-6" cx="65.41" cy="39.58" r="2.88"/>
  <circle class="cls-6" cx="125.6" cy="39.14" r="2.88"/>
  <path class="cls-3" d="M125.15,73.83c-7.61-1.5-17.07-2.74-27.95-2.75-11.06-.02-20.67,1.23-28.37,2.75.68,1.48,1.89,3.67,4.01,5.76,3.53,3.48,7.47,4.6,11.1,5.59,5.52,1.5,9.9,1.37,14.02,1.24,6.38-.19,10.93-1.29,12.93-1.83,4.04-1.09,6.82-1.87,9.6-4.26,2.58-2.23,3.95-4.81,4.67-6.51Z"/>
  <path class="cls-4" d="M125.15,73.83c-1.18-1.38-2.82-3.11-4.92-4.92-4.43-3.81-8.45-5.82-9.51-6.34-3.29-1.6-7.29-3.54-12.52-3.75-6.23-.25-10.83,2.1-15.52,4.51-3.5,1.79-8.69,4.99-13.85,10.51,8.04-1.57,18.09-2.85,29.68-2.73,10.26.11,19.26,1.28,26.64,2.73Z"/>
</svg>