<?xml version="1.0" encoding="UTF-8"?>
<svg id="open-mouth" xmlns="http://www.w3.org/2000/svg" viewBox="0 0 193.27 185.68">
  <defs>
    <style>
      .cls-1 {
        fill: #f4c217;
      }

      .cls-1, .cls-2, .cls-3, .cls-4, .cls-5 {
        stroke-width: 0px;
      }

      .cls-2 {
        fill: #f47920;
      }

      .cls-3 {
        fill: #f8981d;
      }

      .cls-4 {
        fill: #304a60;
      }

      .cls-5 {
        fill: #ecf0f1;
      }
    </style>
  </defs>
  <path class="cls-3" d="M22.38,76.33c2.28,1.39,3.86,2.6,4.09,2.77,2.53,1.93,10.6,7.39,16.98,10.35,7.29,3.38,7.39,1.17,21.86,5.95,6.94,2.3,9.27,3.58,11.28,5.03,2.09,1.51,6.92,5.1,9.56,11.86,2.55,6.56,1.54,12.27,1.29,13.54-1.4,7.15-5.72,11.48-7.96,13.66-1.76,1.72-6.7,6.41-14.46,7.8-3.56.64-7.61.56-13.95-1.31-15.05-4.45-25.36-13.81-28.22-16.52-2.39-2.26-17.66-17.04-20.22-34.96-1.12-7.85.79-12.12,2.12-14.28.79-1.28,2.54-4.03,6.06-5.49,1.12-.46,4.28-1.57,7.62-.51,1.07.34,2.03.93,3.96,2.1Z"/>
  <path class="cls-1" d="M42.33,64.72c-.34,3.82,3.18,4.61,3.37,10.11.16,4.64-1.58,8.39-2.41,10.11-2.05,4.3-4.22,5.89-6.74,8.99-4.55,5.6-6.28,11.22-7.71,15.89-3.37,11.02-2.02,20.47-1.44,24.24.95,6.21,4.78,24.36,20.39,35.96,3.21,2.39,5.81,3.67,9.15,5.3,18.58,9.05,36.39,10.12,43.18,10.27,10.41.24,33.39.78,56.03-13.97,17.31-11.27,25.54-25.71,27.29-28.9,3.46-6.28,10.45-19.09,9.79-36.28-.14-3.56.56-8.22-1.93-13-.55-1.06-3.34-6.16-9.15-8.67-5.52-2.38-9.63.48-21.67,4.33-16.56,5.3-25.92,5.7-28.58,5.78-7.46.21-15.5.33-19.1-4.82-1.62-2.3-2.67-6.14-1.61-9.47.64-1.98,1.73-2.87,3.85-5.3,0,0,1.08-1.23,6.74-9.15,5.31-7.42,5.43-18.22,5.46-20.71.21-18.73-12.51-31.22-14.13-32.75-1.72-1.63-18.06-16.64-40.45-11.72-16.09,3.54-26.34,15.4-30.82,25.2-3.31,7.24-3.58,10.22-3.37,11.4,1.48,8.37,12.2,10.7,11.65,16.53-.43,4.6-7.31,5.13-7.8,10.6Z"/>
  <path class="cls-2" d="M49.95,51.52c.27-.16.61,0,.67.3.95,5.23-.08,10.1-3.05,12.38-1.42,1.09-3.44,1.71-3.68,1.78-2.03.61-3.55.51-6.73.25-9.41-.76-10.9-1.03-12.86-1.64-1.31-.41-2.54-.8-3.87-1.49-3.94-2.04-6.45-5.55-8.05-8.84-.64-1.33.59-2.8,2-2.39.51.15,1.04.29,1.61.43.68.16,2.7.62,7.18.89,3.53.21,3.71.02,10.24.17,1.87.04,3.74,0,5.61.07,2.49.09,3.73.22,5.72-.08,1.6-.24,2.72-.62,3.59-.99.64-.28,1.19-.57,1.64-.84Z"/>
  <path class="cls-3" d="M50.68,52.04c.12-.31-.4-1.28-1.44-3.21-.33-.61-.97-1.79-1.93-3.05-1.84-2.42-2.51-2.07-4.17-4.17-1.79-2.27-1.54-3.36-2.89-4.01-1.31-.63-2.51-.06-4.49.48,0,0-5.02,1.37-11.08.96-2.41-.16-4.82-.24-7.22-.48-.84-.08-2.38-.25-3.69.64-.71.48-1.37,1.28-1.44,1.77-.6,4.12,37.18,14.25,38.37,11.08Z"/>
  <ellipse class="cls-4" cx="62.86" cy="30.01" rx="12.34" ry="7.91" transform="translate(10.4 75.84) rotate(-66.66)"/>
  <ellipse class="cls-5" cx="60.88" cy="27.42" rx="4.43" ry="2.84" transform="translate(11.59 72.46) rotate(-66.66)"/>
  <path class="cls-3" d="M144.23,115.01c-2.66-.13-4.66-.02-4.94,0-3.17.17-12.92.17-19.87-.96-7.93-1.3-6.78-3.18-21.43-7.34-7.04-2-9.68-2.24-12.16-2.17-2.58.08-8.59.33-14.57,4.45-5.8,4-8.16,9.29-8.67,10.47-2.85,6.7-1.71,12.71-1.08,15.77.49,2.41,1.94,9.06,7.59,14.57,2.59,2.53,5.98,4.74,12.28,6.74,14.96,4.77,28.74,2.8,32.63,2.17,3.24-.53,24.18-4.19,36.36-17.58,5.34-5.87,6.15-10.48,6.26-13,.06-1.5.16-4.77-1.93-7.95-.66-1.01-2.66-3.71-6.02-4.7-1.08-.32-2.21-.37-4.45-.48Z"/>
</svg>