<?xml version="1.0" encoding="UTF-8"?>
<svg id="closed-mouth" xmlns="http://www.w3.org/2000/svg" viewBox="0 0 193.27 185.68">
  <defs>
    <style>
      .cls-1 {
        fill: #f4c217;
      }

      .cls-1, .cls-2, .cls-3, .cls-4, .cls-5 {
        stroke-width: 0px;
      }

      .cls-2 {
        fill: #f47920;
      }

      .cls-3 {
        fill: #f8981d;
      }

      .cls-4 {
        fill: #304a60;
      }

      .cls-5 {
        fill: #ecf0f1;
      }
    </style>
  </defs>
  <path class="cls-3" d="M18.52,78.89c2.42,1.11,4.14,2.13,4.38,2.27,2.74,1.62,11.39,6.1,18.08,8.29,7.64,2.5,7.48.3,22.41,3.35,7.17,1.47,9.62,2.47,11.79,3.68,2.25,1.25,7.47,4.25,10.88,10.66,3.31,6.22,2.97,12.01,2.87,13.29-.56,7.26-4.33,12.07-6.3,14.5-1.55,1.91-5.9,7.15-13.44,9.44-3.46,1.05-7.49,1.45-14.01.33-15.47-2.66-26.8-10.74-29.96-13.1-2.63-1.96-19.53-14.86-24.18-32.35-2.04-7.67-.64-12.13.43-14.43.63-1.36,2.05-4.31,5.37-6.17,1.05-.59,4.07-2.06,7.51-1.4,1.11.22,2.13.68,4.18,1.62Z"/>
  <path class="cls-1" d="M42.33,64.72c1.61,3.6,3.22,5.93,3.37,10.11.16,4.64-1.58,8.39-2.41,10.11-2.05,4.3-4.22,5.89-6.74,8.99-4.55,5.6-6.28,11.22-7.71,15.89-3.37,11.02-2.02,20.47-1.44,24.24.95,6.21,4.78,24.36,20.39,35.96,3.21,2.39,5.81,3.67,9.15,5.3,18.58,9.05,36.39,10.12,43.18,10.27,10.41.24,33.39.78,56.03-13.97,17.31-11.27,25.54-25.71,27.29-28.9,3.46-6.28,10.45-19.09,9.79-36.28-.14-3.56.56-8.22-1.93-13-.55-1.06-3.34-6.16-9.15-8.67-5.52-2.38-9.63.48-21.67,4.33-16.56,5.3-25.92,5.7-28.58,5.78-7.46.21-15.5.33-19.1-4.82-1.62-2.3-2.67-6.14-1.61-9.47.64-1.98,1.73-2.87,3.85-5.3,0,0,1.08-1.23,6.74-9.15,5.31-7.42,5.43-18.22,5.46-20.71.21-18.73-12.51-31.22-14.13-32.75-1.72-1.63-18.06-16.64-40.45-11.72-16.09,3.54-26.34,15.4-30.82,25.2-2.45,5.35-3.19,10.11-3.37,11.4-1.96,13.81,3.62,26.6,3.85,27.13Z"/>
  <path class="cls-3" d="M50.68,52.04c.12-.31-.4-1.28-1.44-3.21-.33-.61-.97-1.79-1.93-3.05-1.84-2.42-2.51-2.07-4.17-4.17-1.79-2.27-1.54-3.36-2.89-4.01-1.31-.63-2.51-.06-4.49.48,0,0-5.02,1.37-11.08.96-2.41-.16-4.82-.24-7.22-.48-.84-.08-2.38-.25-3.69.64-.71.48-1.37,1.28-1.44,1.77-.6,4.12,37.18,14.25,38.37,11.08Z"/>
  <path class="cls-2" d="M50.68,52.04c-.25,5.58-2.5,10.35-6.1,11.88-1.65.7-3.76.79-4.01.8-2.12.08-3.56-.4-6.58-1.44-8.92-3.09-10.3-3.73-12.04-4.82-1.16-.73-2.26-1.41-3.37-2.41-4.57-4.1-5.8-10.27-6.09-14.46,1.02.78,2.54,1.85,4.5,2.88.62.33,2.46,1.27,6.73,2.66,3.36,1.09,3.59.95,9.87,2.73,3.46.98,3.82,1.14,5.41,1.47,3.7.77,3.85.32,6.67,1.02.48.12,1.4.36,2.61.27,1.04-.08,1.87-.37,2.41-.6Z"/>
  <ellipse class="cls-4" cx="62.86" cy="30.01" rx="12.34" ry="7.91" transform="translate(10.4 75.84) rotate(-66.66)"/>
  <ellipse class="cls-5" cx="60.88" cy="27.42" rx="4.43" ry="2.84" transform="translate(11.59 72.46) rotate(-66.66)"/>
  <path class="cls-3" d="M144.23,115.01c-2.66-.13-4.66-.02-4.94,0-3.17.17-12.92.17-19.87-.96-7.93-1.3-6.78-3.18-21.43-7.34-7.04-2-9.68-2.24-12.16-2.17-2.58.08-8.59.33-14.57,4.45-5.8,4-8.16,9.29-8.67,10.47-2.85,6.7-1.71,12.71-1.08,15.77.49,2.41,1.94,9.06,7.59,14.57,2.59,2.53,5.98,4.74,12.28,6.74,14.96,4.77,28.74,2.8,32.63,2.17,3.24-.53,24.18-4.19,36.36-17.58,5.34-5.87,6.15-10.48,6.26-13,.06-1.5.16-4.77-1.93-7.95-.66-1.01-2.66-3.71-6.02-4.7-1.08-.32-2.21-.37-4.45-.48Z"/>
</svg>